<svg width="100" height="100" viewBox="0 0 100 100" fill="none" xmlns="http://www.w3.org/2000/svg">
<g clip-path="url(#clip0_134_7278)">
<path d="M100 0H0V100H100V0Z" fill="white" fill-opacity="0.01"/>
<path d="M38.1278 49.8858C38.8501 50.3307 39.5407 50.8253 40.1945 51.3658C52.1012 63.2414 63.9989 75.1192 75.8878 86.9992C78.0278 89.1325 79.2212 91.5258 78.4878 94.5459C78.1998 95.7015 77.6284 96.7671 76.8251 97.6465C76.0219 98.5258 75.0121 99.1911 73.8872 99.5822C72.7622 99.9732 71.5575 100.078 70.382 99.8864C69.2065 99.695 68.0973 99.2136 67.1545 98.4858C66.6364 98.0555 66.1444 97.5947 65.6812 97.1059L24.3078 55.7725C20.3078 51.7725 20.3412 47.9458 24.3078 43.9525C38.1745 30.0858 52.0434 16.217 65.9145 2.34584C68.2745 -0.00749032 71.2478 -0.580824 74.0745 0.69251C75.4168 1.28544 76.5428 2.27897 77.2983 3.53693C78.0538 4.79489 78.4017 6.25571 78.2945 7.71918C78.1678 9.79251 77.1412 11.3858 75.6945 12.8258C63.8323 24.6392 51.9767 36.4703 40.1278 48.3192C39.4878 48.8745 38.8203 49.3974 38.1278 49.8858Z" fill="#4662C5"/>
</g>
<defs>
<clipPath id="clip0_134_7278">
<rect width="100" height="100" fill="white"/>
</clipPath>
</defs>
</svg>
