<svg width="22" height="22" viewBox="0 0 22 22" fill="none" xmlns="http://www.w3.org/2000/svg">
<path d="M16.7306 15.4261L12.3015 10.9878L16.7065 6.5739C17.0658 6.21374 17.0658 5.62992 16.7065 5.26997C16.3471 4.91001 15.7647 4.91001 15.4053 5.26997L11.0003 9.68392L6.59546 5.26997C6.23603 4.91001 5.65359 4.91001 5.29417 5.26997C4.93475 5.63012 4.93475 6.21394 5.29417 6.5739L9.69897 10.9878L5.26957 15.4261C4.91014 15.7862 4.91014 16.3698 5.26957 16.73C5.44928 16.9101 5.6847 17 5.92031 17C6.15592 17 6.39134 16.9101 6.57105 16.73L11.0003 12.2918L15.4293 16.73C15.609 16.9101 15.8444 17 16.08 17C16.3156 17 16.551 16.9101 16.7308 16.73C17.0898 16.37 17.0898 15.7862 16.7306 15.4261Z" fill="#4662C5"/>
</svg>
