<svg width="14" height="7" viewBox="0 0 14 7" fill="none" xmlns="http://www.w3.org/2000/svg">
<path d="M0.876392 -3.83083e-08C1.10864 0.000206899 1.3313 0.0937604 1.49543 0.260094L5.97585 4.7952C6.11143 4.93247 6.27239 5.04136 6.44955 5.11565C6.62671 5.18994 6.81659 5.22818 7.00836 5.22818C7.20012 5.22818 7.39 5.18994 7.56716 5.11565C7.74432 5.04136 7.90528 4.93247 8.04086 4.7952L12.5154 0.266004C12.6807 0.104487 12.9019 0.0151147 13.1316 0.017135C13.3613 0.0191549 13.581 0.112407 13.7434 0.276806C13.9058 0.441204 13.998 0.663597 14 0.896083C14.002 1.12857 13.9137 1.35255 13.7541 1.51978L9.28302 6.04897C8.68018 6.65797 7.86327 7 7.01157 7C6.15986 7 5.34295 6.65797 4.74011 6.04897L0.256772 1.51387C0.134182 1.38986 0.0506872 1.23183 0.0168539 1.05978C-0.0169795 0.887727 0.000368804 0.709382 0.0667035 0.547311C0.133038 0.385241 0.245378 0.24673 0.389507 0.149305C0.533637 0.0518803 0.703079 -7.96625e-05 0.876392 -3.83083e-08Z" fill="white"/>
</svg>
