<svg width="596" height="213" viewBox="0 0 596 213" fill="none" xmlns="http://www.w3.org/2000/svg">
<path d="M145.427 125.408C145.411 129.488 146.056 133.543 147.337 137.409C148.538 141.137 150.483 144.573 153.052 147.502C155.731 150.498 159.02 152.866 162.69 154.442C167.103 156.258 171.836 157.134 176.596 157.018C184.077 157.018 190.095 155.538 194.65 152.578C199.39 149.372 202.972 144.686 204.856 139.228H229.072C227.812 144.825 225.447 150.104 222.119 154.745C218.848 159.267 214.805 163.157 210.183 166.231C205.403 169.392 200.16 171.765 194.65 173.263C188.762 174.861 182.691 175.661 176.596 175.642C168.342 175.793 160.132 174.39 152.38 171.505C145.668 168.978 139.564 165.026 134.476 159.912C129.568 154.878 125.817 148.802 123.494 142.122C120.956 134.825 119.703 127.131 119.794 119.392C119.78 112.003 121.136 104.677 123.792 97.7984C126.327 91.0304 130.187 84.855 135.14 79.6458C140.092 74.4366 146.033 70.3017 152.604 67.4915C159.986 64.36 167.926 62.8123 175.925 62.9454C184.398 62.8046 192.793 64.6071 200.484 68.2188C207.423 71.494 213.582 76.255 218.538 82.1751C223.355 88.0186 226.913 94.8221 228.983 102.147C231.158 109.693 231.733 117.621 230.669 125.408H145.427ZM205.11 109.906C204.816 106.203 203.944 102.572 202.528 99.147C201.177 95.7906 199.196 92.7334 196.694 90.1459C193.984 87.3703 190.751 85.1787 187.187 83.7023C183.624 82.2259 179.803 81.4952 175.955 81.5539C171.783 81.4959 167.637 82.2362 163.735 83.736C160.234 85.0713 157.032 87.1067 154.32 89.7216C151.688 92.2946 149.557 95.3482 148.038 98.7227C146.455 102.239 145.577 106.041 145.457 109.906H205.11Z" fill="#FC5457"/>
<path d="M241.891 25.1094H267.45V172.825H241.891V25.1094Z" fill="#FC5457"/>
<path d="M281.586 65.8455H305.847V80.3171H306.294C309.686 74.2845 314.979 69.5872 321.319 66.982C327.95 64.2449 335.051 62.8747 342.208 62.9512C350.38 62.7759 358.501 64.2863 366.081 67.3912C372.557 70.1206 378.345 74.295 383.016 79.6048C387.554 84.8771 390.986 91.0335 393.103 97.6981C395.385 104.847 396.523 112.322 396.475 119.837C396.5 126.914 395.494 133.956 393.49 140.734C391.589 147.244 388.468 153.321 384.299 158.63C380.07 163.888 374.745 168.127 368.707 171.041C361.751 174.284 354.158 175.875 346.505 175.693C342.751 175.689 339.004 175.375 335.3 174.753C331.612 174.139 328.001 173.123 324.527 171.723C321.141 170.384 317.937 168.612 314.993 166.449C312.148 164.376 309.684 161.812 307.712 158.873H307.264V212.243H281.586V65.8455ZM370.826 119.428C370.835 114.661 370.156 109.918 368.812 105.351C367.558 100.96 365.503 96.8475 362.754 93.2278C360.043 89.6845 356.6 86.7879 352.668 84.7419C348.359 82.5384 343.585 81.4357 338.762 81.5293C328.009 81.5293 319.897 84.9793 314.426 91.8792C308.955 98.779 306.23 107.952 306.25 119.398C306.203 124.475 306.922 129.529 308.383 134.385C309.668 138.776 311.854 142.841 314.799 146.31C319.646 151.578 326.02 155.141 332.995 156.481C339.971 157.822 347.185 156.871 353.593 153.766C357.491 151.666 360.896 148.735 363.575 145.174C366.213 141.595 368.116 137.513 369.17 133.172C370.291 128.68 370.847 124.062 370.826 119.428Z" fill="#FC5457"/>
<path d="M506.071 149.07C505.899 151.213 506.329 153.362 507.31 155.268C508.13 156.51 509.727 157.132 512.129 157.132H514.755C515.964 157.113 517.168 156.976 518.351 156.722V173.058C517.456 173.331 516.292 173.649 514.874 173.997C513.457 174.346 511.995 174.649 510.503 174.922C509.011 175.195 507.519 175.407 506.027 175.543C504.534 175.679 503.251 175.755 502.222 175.755C497.714 175.922 493.237 174.927 489.211 172.861C485.769 170.921 483.526 167.542 482.482 162.723C477.073 167.448 470.666 170.844 463.756 172.649C456.786 174.634 449.584 175.653 442.345 175.679C437.273 175.704 432.22 175.042 427.32 173.709C422.8 172.524 418.512 170.566 414.638 167.921C411.015 165.417 408.02 162.085 405.894 158.192C403.687 153.992 402.582 149.284 402.686 144.524C402.686 137.917 403.994 132.543 406.611 128.401C409.177 124.315 412.732 120.965 416.936 118.672C421.435 116.241 426.276 114.529 431.289 113.596C436.586 112.565 441.943 111.777 447.314 111.232C451.954 110.398 456.356 109.807 460.549 109.459C464.291 109.193 468.005 108.605 471.649 107.701C474.462 107.087 477.082 105.775 479.274 103.882C480.272 102.857 481.039 101.625 481.523 100.27C482.007 98.9147 482.197 97.4693 482.079 96.0329C482.186 93.3427 481.351 90.7011 479.721 88.5774C478.153 86.6466 476.153 85.1243 473.888 84.1374C471.425 83.0646 468.821 82.3652 466.159 82.0614C463.48 81.7336 460.785 81.5615 458.087 81.5462C450.905 81.5462 444.996 82.9251 440.361 85.683C438.108 86.9943 436.211 88.8537 434.841 91.0941C433.471 93.3345 432.671 95.8857 432.513 98.518H406.954C407.149 92.3989 409.013 86.455 412.34 81.3492C415.44 76.8127 419.524 73.0593 424.277 70.3781C429.39 67.5289 434.938 65.5722 440.689 64.5894C446.911 63.4779 453.217 62.9252 459.534 62.9377C465.179 62.9317 470.811 63.4849 476.349 64.5894C481.57 65.5784 486.604 67.3937 491.27 69.9689C495.504 72.2943 499.146 75.5888 501.908 79.5914C504.7 83.8339 506.113 88.8571 505.952 93.9568L506.071 149.07ZM480.512 119.263C476.106 121.764 471.198 123.215 466.159 123.506C460.479 123.991 454.799 124.713 449.119 125.673C446.462 126.076 443.835 126.663 441.256 127.431C438.88 128.09 436.616 129.112 434.542 130.462C432.604 131.765 431.018 133.542 429.931 135.629C428.728 138.055 428.138 140.748 428.216 143.463C428.15 145.913 429.034 148.291 430.677 150.085C432.358 151.902 434.39 153.347 436.646 154.328C439.081 155.393 441.645 156.121 444.27 156.495C446.738 156.889 449.232 157.096 451.73 157.116C454.821 157.094 457.901 156.749 460.922 156.086C464.183 155.401 467.322 154.215 470.232 152.57C473.059 150.992 475.537 148.842 477.513 146.251C479.532 143.55 480.584 140.231 480.497 136.841L480.512 119.263Z" fill="#4662C5"/>
<path d="M528.953 0.546875H554.512V172.826H528.953V0.546875Z" fill="#4662C5"/>
<path d="M570.422 0.546875H595.996V172.826H570.422V0.546875Z" fill="#4662C5"/>
<path d="M124.229 187.343L108.025 203.8L100.475 197.905C96.5824 194.772 93.3713 190.853 91.0446 186.395C88.7179 181.938 87.3262 177.039 86.9573 172.008C86.7633 169.099 86.6738 105.575 86.6738 105.575C86.3903 97.1653 84.4954 91.0433 81.0487 87.2549C77.6021 83.4666 72.0964 81.5875 64.8449 81.5875C60.9926 81.5125 57.1668 82.2504 53.6097 83.7545C50.399 85.1359 47.5187 87.2032 45.1647 89.8158C42.8237 92.4394 40.9912 95.4881 39.7634 98.8018C38.4802 102.27 37.8281 105.947 37.8387 109.652V172.751H13.2047V43.9464C13.0406 40.2489 14.0851 32.0964 11.9962 28.7929C11.077 26.9952 9.75917 25.439 8.14665 24.2469L0 17.5187L16.7111 0.546875C19.4266 2.69866 24.0371 6.38095 24.1714 6.51733C28.0548 9.68645 31.252 13.6359 33.5628 18.1182C35.8735 22.6006 37.2479 27.5192 37.5999 32.5661C37.764 35.6726 37.7342 39.9762 37.7939 43.2796V79.9055H38.2117C41.6129 74.7482 46.2697 70.5721 51.7297 67.7827C57.893 64.5 64.7645 62.8283 71.7233 62.9185C83.9383 62.9185 93.592 65.9492 100.684 72.0105C107.777 78.0719 111.303 87.164 111.263 99.2868V161.886C111.263 162.901 111.263 168.644 111.263 168.644C111.308 170.666 111.751 172.658 112.566 174.503C113.381 176.348 114.551 178.009 116.008 179.388C119.529 183.055 124.229 187.343 124.229 187.343Z" fill="#FC5457"/>
</svg>
