<svg width="100" height="100" viewBox="0 0 100 100" fill="none" xmlns="http://www.w3.org/2000/svg">
<g clip-path="url(#clip0_3_2067)">
<path d="M98.1746 89.3551L78.8198 69.9921C93.302 50.6389 89.3532 23.2097 69.9999 8.72757C50.6467 -5.7546 23.2176 -1.80578 8.73538 17.5474C-5.74678 36.9007 -1.79797 64.3298 17.5553 78.812C33.1014 90.4453 54.4536 90.4453 69.9999 78.812L89.3629 98.1749C91.7962 100.608 95.7413 100.608 98.1744 98.1749C100.608 95.7417 100.608 91.7965 98.1744 89.3634L98.1746 89.3551ZM43.939 75.0748C26.7387 75.0748 12.7953 61.1314 12.7953 43.9311C12.7953 26.7309 26.7387 12.7875 43.939 12.7875C61.1392 12.7875 75.0826 26.7309 75.0826 43.9311C75.0643 61.1236 61.1316 75.0565 43.939 75.0748Z" fill="#4662C5"/>
</g>
<defs>
<clipPath id="clip0_3_2067">
<rect width="100" height="100" fill="white"/>
</clipPath>
</defs>
</svg>
