<svg width="14" height="7" viewBox="0 0 14 7" fill="none" xmlns="http://www.w3.org/2000/svg">
<path d="M13.1236 7C12.8914 6.99979 12.6687 6.90624 12.5046 6.73991L8.02415 2.2048C7.88857 2.06753 7.72761 1.95864 7.55045 1.88435C7.37329 1.81006 7.18341 1.77182 6.99164 1.77182C6.79988 1.77182 6.61 1.81006 6.43284 1.88435C6.25568 1.95864 6.09472 2.06753 5.95914 2.2048L1.48456 6.734C1.31934 6.89551 1.09807 6.98488 0.868383 6.98286C0.638701 6.98084 0.41899 6.88759 0.256573 6.72319C0.0941563 6.5588 0.00202949 6.3364 3.34514e-05 6.10392C-0.00196259 5.87143 0.0863324 5.64745 0.245902 5.48022L4.71698 0.951027C5.31982 0.34203 6.13673 9.37686e-08 6.98843 8.36121e-08C7.84014 7.34556e-08 8.65705 0.34203 9.25989 0.951027L13.7432 5.48613C13.8658 5.61014 13.9493 5.76817 13.9831 5.94022C14.017 6.11227 13.9996 6.29062 13.9333 6.45269C13.867 6.61476 13.7546 6.75327 13.6105 6.85069C13.4664 6.94812 13.2969 7.00008 13.1236 7Z" fill="white"/>
</svg>
